<svg xmlns="http://www.w3.org/2000/svg" viewBox="0 0 24 24" width="24" height="24" role="img" aria-label="Java file icon (minimal)" fill="none" stroke="currentColor" stroke-width="1.5" stroke-linecap="round" stroke-linejoin="round">
  <title>Java File (Minimal)</title>
  <!-- File body with corner fold -->
  <path d="M5.5 2.5 L14.5 2.5 L20.5 8.5 L20.5 20.5 Q20.5 21.5 19.5 21.5 L5.5 21.5 Q4.5 21.5 4.5 20.5 L4.5 3.5 Q4.5 2.5 5.5 2.5 Z"/>
  <!-- Corner fold -->
  <path d="M14.5 2.5 L14.5 8.5 L20.5 8.5"/>
  <!-- Coffee cup -->
  <path d="M8 13 L16 13 L15.4 19 Q15.3 20 14.3 20 L9.7 20 Q8.7 20 8.6 19 Z"/>
  <!-- Cup handle -->
  <path d="M16 14.5 Q18 14.5 18 16.2 Q18 17.9 16 17.9"/>
  <!-- Steam wisps -->
  <path d="M10 9 Q11 8 10 7"/>
  <path d="M13 9 Q14 8 13 7"/>
</svg>
