<svg xmlns="http://www.w3.org/2000/svg" viewBox="0 0 24 24" width="24" height="24" role="img" aria-label="JavaScript file icon (flat)">
  <title>JavaScript File (Flat)</title>
  <path d="M5 3 L14 3 L20 9 L20 20 L4 20 Z" fill="#F7DF1E"/>
  <path d="M14 3 L20 9 L14 9 Z" fill="#000000" fill-opacity="0.15"/>
  <path d="M9 11 H11 V18 C11 19.5 8.5 19.5 8 18 L9.5 17 C9.5 18 9.5 18 9.5 18 Z" fill="#000000"/>
  <path d="M16.5 11.5 L12.5 11.5 L12.5 14 L15 14 L15 16.5 L12.5 16.5 L12.5 19 L16.5 19 L16.5 17.5 L14 17.5 L14 15.5 L16 15.5 L16 12.5 Z" fill="#000000"/>
</svg>
